<?xml version="1.0" encoding="utf-8"?>
<!-- Generator: Adobe Illustrator 25.3.1, SVG Export Plug-In . SVG Version: 6.00 Build 0)  -->
<svg version="1.1" id="Layer_2" xmlns="http://www.w3.org/2000/svg" xmlns:xlink="http://www.w3.org/1999/xlink" x="0px" y="0px"
	 width="385.8px" height="279.3px" viewBox="0 0 385.8 279.3" style="enable-background:new 0 0 385.8 279.3;" xml:space="preserve"
	>
<style type="text/css">
	.st0{fill:#201B0E;}
</style>
<path class="st0" d="M272.2,103.8c0-2.3,1.8-4.1,4-4.1c0,0,0,0,0,0c2.3,0,4.1,1.9,4.1,4.2c0,2.3-1.8,4-4.1,4v-0.4c0,0,0,0,0,0l0,0.4
	c0,0,0,0,0,0C274,107.9,272.2,106.1,272.2,103.8z M244.1,111.3C244.1,111.3,244.1,111.3,244.1,111.3c2.3,0,4.2-2,4.2-4.2
	c0-2.2-2-4.2-4.1-4.2c0,0,0,0,0,0v0v0c0,0,0,0,0,0c-2.2,0-4.1,2-4.1,4.2C240,109.3,241.8,111.3,244.1,111.3z M110.6,111.3
	C110.7,111.3,110.7,111.3,110.6,111.3c2.2,0,4.1-1.9,4.1-4.2c0-2.3-1.9-4.2-4.1-4.3c0,0,0,0,0,0c-2.2,0-4.2,2.1-4.1,4.3
	C106.6,109.4,108.4,111.3,110.6,111.3z M113.1,180.4C113.1,180.4,113.2,180.4,113.1,180.4c5.8,0,9.9-4.1,9.9-9.9
	c0-5.6-4.3-10-9.7-10c0,0-0.1,0-0.1,0c-5.3,0.1-9.6,4.5-9.6,10C103.6,176.1,107.6,180.4,113.1,180.4z M385.8,226.6l-31.5,14h-38.6
	h-2.1L307,226l-19.8,14.5h-37l0.8-2.7c-1.7,1.5-6.8,2.7-6.8,2.7c-21.1,1.8-31.3-8.2-36-12.8c-4.6,8.1-15.4,12.8-29.4,12.8
	c-14,0-24.5-8.2-24.5-8.2S152,226,150,221c-2.4,3.3-4.8,4.2-4.8,4.2v15.4H89.6v38.7h-46L1.8,268.8l0-0.8c0-0.3,0-0.6-0.1-1
	c0-0.7-0.1-1.4-0.1-2.1c0-38.1,0-76.9,0-114.4l0-13.9v-3.4v-0.8h0.8h7.4c-3-3.4-5.3-7.4-7-11.8c-2.2-5.9-3.1-11.8-2.8-17.6
	c0.3-5.4,1.8-10.6,4.3-15.4c5.3-10,15-17.4,26.4-20.1c4.2-1,8.3-1.5,12.1-1.5l0,0l0,0.8v-0.4v-0.4c6.3,0,12.2,1.4,17.6,4.1
	c4.4,2.2,8,4.9,11,8.1l0.6,0.6l4.2,8.8h2.2h0.8l10.3,21.9c0,0,0.1,0,0.1,0c-0.1-0.9-0.2-1.8-0.1-2.8c0.1-11.6,8.5-20,20.2-20h0
	l0.1,0c6,0,11.2,2,14.9,5.8c0.1,0.1,0.3,0.3,0.4,0.5c0.2-0.2,0.5-0.5,0.7-0.7c0.1-0.1,0.1-0.1,0.2-0.2c0.2-0.2,0.4-0.3,0.5-0.5
	c0.1-0.1,0.2-0.1,0.2-0.2c0.2-0.2,0.4-0.3,0.6-0.5c0.1,0,0.1-0.1,0.2-0.1c0.3-0.2,0.5-0.4,0.8-0.6l-2.2-8.7v-0.8v-0.3v-0.3l0.1-0.2
	c0.1-0.1,0.2-0.3,0.3-0.4c0.2-0.3,0.4-0.5,0.5-0.8c10.7-20.2,21.3-40.4,32-60.5l8.1-15.4c0.2-0.3,0.4-0.7,0.6-1.1
	c0.1-0.2,0.2-0.4,0.4-0.7l0.7-1.3l0.7,1.3l31.3,58.3l11.2,20.9l0.7,1.2l-1.3,11l0.5,1.2c0,0,0,0,0-0.1c0.7-1.6,1.3-3.2,2-4.7
	c0.3-0.6,1-1.4,1.7-1.4c4.3,0,8.6,0,12.7,0l3.4,0l3.4,0h1.2l-0.1,0.3c0.8-0.3,1.6-0.5,2.5-0.6c1.6-0.3,3.2-0.5,4.8-0.5
	c3.4,0,6.7,0.8,9.6,2.3c0.3,0.1,0.5,0.3,0.8,0.4c0.1,0.1,0.2,0.1,0.3,0.2c0.1,0.1,0.2,0.1,0.4,0.2c0.4,0.2,0.7,0.4,1,0.7l0.9-2.9
	l0.8-0.1c0.1,0,0.2,0,0.3,0c0.3,0,0.5,0,0.8,0l3.6,0c2.3,0,4.7,0,7,0c2.9,0,5.4,0,7.7,0c3.4,0,6.3,0.6,8.8,1.8
	c0.3,0.1,0.6,0.3,0.8,0.4c0.1,0,0.1,0.1,0.2,0.1c0.3,0.1,0.5,0.3,0.7,0.4c0.1,0,0.1,0.1,0.2,0.1c0.2,0.1,0.4,0.3,0.6,0.4
	c0.1,0.1,0.2,0.1,0.2,0.2c0.2,0.1,0.3,0.3,0.5,0.4c0.1,0.1,0.2,0.1,0.3,0.2c0.2,0.1,0.3,0.3,0.5,0.4c0.1,0.1,0.2,0.2,0.3,0.3
	c0.1,0.1,0.2,0.2,0.2,0.2c0.2,0.2,0.4,0.4,0.5,0.6c0,0.1,0.1,0.1,0.1,0.2c0.6,0.7,1.1,1.5,1.6,2.3l3.6-7.3v-0.8h0.8h16.6h0.8v0.8
	v5.1c0,0,0-0.1,0.1-0.1c1-1.5,2.1-3,3.1-4.6c0.7-1,1.4-1.4,2.6-1.4l0,0c2,0,4,0,6.8,0c1.2,0,2.4,0,3.7,0c1.3,0,2.5,0,3.8,0h1.6
	L325,104.6c0,0,0,0,0,0c3.7,5.2,7.4,10.4,10.9,15.5c0.9,1.3,1.8,2.6,2.8,3.9c0.2,0.2,0.3,0.5,0.5,0.8c0.1,0.1,0.2,0.3,0.3,0.5
	l0.8,1.3l-23,27l2.7,3.4l3,3.7l24.9-27.9l0.9-1.1l0.5,1.3l36.1,92.5L385.8,226.6z M10.5,133.3c-2.7,0-5.4,0-8.1,0c0,1.2,0,2.3,0,3.4
	c0,42.7,0,85.5,0,128.2c0,1,0.1,2,0.1,3.1c20.3,0,40.5,0,60.8,0c-0.1-1.2-0.2-2.4-0.2-3.5c0-41.2,0-82.5,0-123.7c0-0.3,0-0.6,0-0.9
	c0-1,0-2,0-3.1c0-1.1-0.1-2.3-0.2-3.4c-17.2,0-34.2,0-51.3,0C11.3,133.3,10.9,133.3,10.5,133.3z M90.6,109.9
	c0.6,0.2,1.1,0.7,1.5,1.4c1.6,3.1,3.3,6.3,5,9.3c0.5,1,1.1,2,1.6,3c3.1,2.1,7,3.3,11.5,3.3c0,0,0.1,0,0.1,0c6.1,0,11.2-2.4,14.7-6.4
	c0.2-0.2,0.4-0.4,0.5-0.6c2.6-3.3,4.1-7.5,4.1-12.3c0-5.3-1.5-9.7-4.3-13.1c-0.2-0.2-0.4-0.4-0.5-0.6c-3.5-3.8-8.6-6-14.7-6
	c0,0-0.1,0-0.1,0c-11.1,0-19.3,8.1-19.3,19.2C90.4,107.9,90.5,108.9,90.6,109.9z M127,80.9c7.1,0,14.3,0,21.4,0c3.7,0,7.5,0,11.2,0
	c0,0,0,0,0,0c1.1,0,1.7-0.4,2.2-1.3c2.1-4.1,4.3-8.1,6.4-12.2c0.2-0.4,0.5-0.8,0.9-1.5c2.5,4.7,5,9.2,7.3,13.7
	c0.5,0.9,1,1.3,2.1,1.3c0,0,0,0,0,0c5.8,0,11.6,0,17.5,0c4.7,0,9.3,0,14,0c0.4,0,0.8,0,1.5,0c-14.2-26.5-28.3-52.7-42.5-79.2
	c-0.4,0.7-0.7,1.2-1,1.7c-13.4,25.3-26.7,50.6-40.1,75.9c-0.2,0.4-0.6,0.8-0.9,1.3C127,80.7,127,80.8,127,80.9z M228.5,88.5
	c-4.2,0-8.4,0-12.7,0c-0.3,0-0.8,0.5-1,0.9c-0.9,2-1.8,4.1-2.8,6.4c-1.5-3.4-2.9-6.5-4.5-9.9c-1.6,3.4-3.1,6.5-4.7,9.9
	c-0.7-1.5-1.2-2.8-1.8-4c-0.5-1.1-0.7-2.6-1.5-3.1c-0.4-0.3-0.9-0.3-1.4-0.3c-0.7,0-1.4,0.1-2,0.1c0,0,0,0,0,0c-1.8,0-3.6,0-5.5,0
	l-0.4,0.5l-6.5,8.7c4,9.1,8,18.2,12,27.2c0.3,0.7,0.8,0.9,1.5,0.9c0,0,0,0,0,0c3.4,0,6.8,0,10.2,0c3.3,0,6.7,0,10,0c0,0,0,0,0,0
	c0.9,0,1.4-0.3,1.8-1.2c1.6-3.5,3.1-7.1,4.7-10.6c0.2-0.4,0.3-0.8,0.5-1.2c3.4-7.7,6.9-15.4,10.3-23.1c0.1-0.1,0.1-0.3,0.2-0.4
	c0.1-0.3,0.2-0.5,0.3-0.8c-0.1,0-0.3,0-0.4,0C232.8,88.5,230.7,88.5,228.5,88.5z M243.7,87.7c-1.5,0-3.1,0.2-4.6,0.5
	c-1.1,0.2-2.1,0.5-3.1,0.8c0,0.1-0.1,0.2-0.1,0.3c-0.1,0.3-0.2,0.6-0.3,0.8c-1.3,3-2.7,6-4,8.9c-2.2,4.9-4.4,10-6.7,15
	c0.7,2.2,1.8,4.2,3.3,5.9c4.2,4.8,9.2,6.9,14.8,6.9c1.9,0,3.9-0.3,6-0.7c3-0.7,5.6-2.1,7.7-4c0.3-0.3,0.6-0.5,0.8-0.8
	c3.4-3.5,5.3-8.4,5.3-14c0-5.7-1.6-10.5-5.3-14.1c-0.3-0.3-0.5-0.5-0.8-0.8c-1.1-1-2.4-1.8-3.8-2.6C250,88.4,246.9,87.7,243.7,87.7z
	 M257.6,92.1c4,3.6,6.1,8.7,6.1,15.2c0,6.2-2.3,11.6-6.1,15.2c0,1.1,0,2.1,0,3.2c12.8,0,25.5,0,38.4,0c-2.4-2.9-4.7-5.6-7.1-8.4
	c0.2-0.2,0.3-0.4,0.4-0.5c3.8-4.1,5.3-8.9,4.6-14.5c-0.7-5.5-3.4-9.6-8.4-12c-2.6-1.3-5.5-1.7-8.4-1.7c-2.6,0-5.1,0-7.7,0
	c-3.5,0-7,0-10.6,0c-0.4,0-0.7,0-1.1,0.1C257.6,89.8,257.6,90.9,257.6,92.1z M297,125.7L297,125.7c5.6,0,11,0,16.7,0
	c0-2.5,0-4.8,0-7.5c0.5,0.6,0.7,1,1,1.3c1.3,1.9,2.6,3.8,4,5.6c0.3,0.3,0.8,0.7,1.2,0.7c3.9,0,7.7,0,11.6,0c2.4,0,4.8,0,7.3,0
	c-0.4-0.5-0.6-0.9-0.8-1.2c-4.6-6.6-9.2-13.2-13.9-19.8c-0.6-0.8-0.6-1.3,0-2.1c3.2-4.2,6.4-8.5,9.6-12.8c0.3-0.4,0.6-0.8,1-1.4
	c-2.6,0-5.1,0-7.5,0c-2.3,0-4.5,0-6.8,0c0,0,0,0,0,0c-0.9,0-1.4,0.3-1.9,1.1c-1.4,2.2-2.9,4.2-4.4,6.4c-0.1,0-0.2,0-0.3-0.1
	c0-2.4,0-4.8,0-7.2c-5.7,0-11.1,0-16.6,0C297,101,297,113.4,297,125.7z M146.7,211.2c9.4,10.5,20.3,15.8,33.1,15.8
	c2.9,0,6-0.3,9.1-0.8c7.3-1.3,13.5-4.7,18.7-10c1.9-1.9,3.4-3.9,4.6-6c0.2-0.3,0.3-0.6,0.5-0.9c4.5-8.5,3.7-18.2-2.3-27
	c-0.3-0.4-0.5-0.8-0.8-1.1c-0.9-1.2-1.8-2.3-2.9-3.5c-3.2-3.4-6.7-6.6-10.3-10.1c3.2-3.3,6.1-6.3,9-9.3c1.4-1.5,2.8-2.9,4.2-4.4
	c0.3-0.3,0.5-0.6,0.8-0.9c1.3-1.4,2.7-2.8,4.1-4.3c-0.5-0.6-0.8-1.1-1.1-1.5c-1-1.2-2-2.3-3-3.3c-0.3-0.3-0.5-0.5-0.8-0.8
	c-7.6-6.9-17.1-9.7-26.2-9.7c-8.2,0-15.9,2.2-21.5,5.8c-4.6,2.9-8.3,6.5-10.7,11.2c3.3,5.4,5.3,11.9,5.6,18.8
	c0.2,4.4-0.2,8.6-1.5,12.6c0.3,0.4,0.7,0.8,1.1,1.2c2.8,3,5.6,5.9,8.6,9.1C158.9,198.5,152.9,204.8,146.7,211.2z M155.5,121.9
	l-0.7,0.5c-0.9,0.7-1.8,1.3-2.8,1.9c0,0.5,0,1,0,1.4c5.6,0,11.1,0,16.7,0c0-2.5,0-4.9,0-7.6c1.8,2.5,3.3,4.7,4.8,6.9
	c0.3,0.4,1,0.8,1.5,0.8c3.3,0,6.5,0,9.8,0c2.7,0,5.3,0,8,0c0.3,0,0.5-0.1,0.9-0.1c-5.2-7.4-10.3-14.6-15.4-22c1.5-2,3-4.1,4.6-6.1
	c0.2-0.3,0.4-0.5,0.6-0.8c2-2.7,4.1-5.5,6.2-8.3c-2.6,0-5.1,0-7.6,0c-0.7,0-1.4,0-2.2,0c-0.3,0-0.6,0-0.9,0c-1.2,0-2.4,0-3.6,0
	c0,0,0,0-0.1,0c-0.9,0-1.5,0.3-2,1.1c-1.4,2.2-2.9,4.2-4.4,6.4c-0.1,0-0.2-0.1-0.3-0.1c0-2.4,0-4.9,0-7.3c-5.6,0-11.1,0-16.6,0
	c0,0.5,0,0.9,0,1.4c0.7,0.4,1.4,0.9,2.1,1.5c0.4,0.3,0.7,0.6,1.1,1c0.2,0.2,0.4,0.4,0.6,0.6l0.7,0.6l-0.7,0.6l-3.9,3.5
	c0,6.7,0,13.4,0,20.1l2.9,3.4L155.5,121.9z M95.9,132.9l0,0.4L95.9,132.9C95.9,132.9,95.9,132.9,95.9,132.9z M213.2,210
	c1.8,3.3,4.6,6.1,8.1,8.3c7.9,5.2,16.2,7.7,24.6,7.7c6.1,0,12.3-1.3,18.5-3.9c0.4-0.1,0.7-0.3,1.1-0.4c0,0,0,0,0,0
	c11.6-5,17.8-13.6,17.5-27c-0.2-5.8-0.2-11.7-0.3-17.5c0-0.8,0-1.5,0-2.3c0-12.7,0.1-25.3,0.1-38c0-1.2,0-2.4,0-3.6
	c-9,0-17.6,0-26.4,0c0,3,0,5.8,0,8.5c-0.1,6-4,10.1-9.6,10.1c0,0,0,0,0,0c-5.7,0-9.6-4-9.7-10c0-2.8,0-5.7,0-8.7c-9,0-17.5,0-26.3,0
	c-0.1,1-0.2,1.6-0.2,2.2c0,2.4,0,4.7,0,7.1c1.3,1.2,2.5,2.5,3.7,3.9c0.2,0.3,0.4,0.6,0.7,0.9c0.1,0.2,0.3,0.4,0.4,0.6l0.4,0.6
	l-0.5,0.5c-1,1-1.9,2-2.9,3c-0.6,0.6-1.2,1.3-1.8,1.9c0,8.9,0,17.8,0,26.7C217.4,190.2,218.3,200.8,213.2,210z M263.9,225.5
	c0.6,0.2,0.9,0.3,1.1,0.3c6.1,0,12.2,0,18.3,0c7.4,0,14.7,0,22.1-0.1c0.9,0,2.1-1,2.5-1.9c2-4.8,3.8-9.7,6-15.3
	c3.4,8.2,6.6,15.6,10.1,23.8c3.4-8.2,6.4-15.6,9.8-23.8c1.9,4.7,3.5,8.6,5.1,12.6c1.9,4.6,1.9,4.6,7,4.6c5.1,0,10.3,0,15.4,0
	c7.6,0,15.2,0,23.2,0c-12.1-30.9-24-61.5-36.1-92.5c-8.3,10.2-16.3,20-24.4,30c-8.3-10.2-16.2-20-24.4-30
	c-5.4,14-10.8,27.9-16.2,41.8c0,6.5,0.1,13.1,0.3,19.6c0.2,6.7-1.3,12.5-4.4,17.1c-3,4.4-7.5,8-13.6,10.7c-0.3,0.1-0.5,0.2-0.8,0.3
	C264.6,223.7,264.3,224.6,263.9,225.5z M125.7,93.8c3,3.6,4.6,8.3,4.6,13.7c0,4.9-1.6,9.4-4.4,13c3.9,4.2,9.1,6.1,14.5,6.1
	c3.7,0,7.4-0.9,10.8-2.8c0.3-0.1,0.6-0.3,0.8-0.5c0.8-0.5,1.6-1,2.3-1.6c-0.8-0.9-1.5-1.8-2.3-2.7c-0.3-0.3-0.5-0.6-0.8-0.9
	c-2.4-2.8-4.8-5.5-7.2-8.3c-1.2,0.8-2.4,1.2-3.4,1.2c-1.1,0-2.1-0.5-2.9-1.4c-1.4-1.6-1.4-3.9,0-5.5c0.8-0.9,1.8-1.4,2.8-1.4
	c1,0,2.1,0.4,3.4,1.3c2.4-2.2,4.8-4.4,7.3-6.7c0.3-0.3,0.5-0.5,0.8-0.8c1.1-1,2.2-2,3.3-3c-0.7-0.6-1.2-1.1-1.7-1.5
	c-0.5-0.4-1.1-0.8-1.6-1.2c-0.3-0.2-0.5-0.3-0.8-0.5c-3.1-1.8-6.5-2.7-10.1-2.7c-1.1,0-2.2,0.1-3.3,0.2
	C132.5,88.7,128.5,90.8,125.7,93.8z M89.9,110.6c-0.1,0-0.2,0-0.3,0c0,0,0,0-0.1,0c-1.6,0-3.3,0-4.9,0c-2,0-4,0-6.1,0
	c0-7.5,0-14.7,0-21.9c-5.6,0-11,0-16.4,0c0,12.4,0,24.8,0,37.1c12.3,0,24.4,0,36.7,0c-0.2-0.4-0.4-0.8-0.6-1.1
	c-0.1-0.2-0.2-0.4-0.3-0.5c-0.3-0.6-0.6-1.2-0.9-1.7c-1.9-3.6-3.8-7.1-5.7-10.7c-0.2-0.3-0.4-0.6-0.6-0.8
	C90.5,110.7,90.2,110.6,89.9,110.6z M68.2,136.6c0,0.3,0,0.7,0,1c0,28.8,0,57.2,0,85.6c22.5,0,44.8,0,67.4,0c0-6.1,0-12,0-18
	c0-1.6,0.5-2.4,2-3.2c3-1.7,6.2-3.5,8.5-5.9c4-4.3,6.8-9,8.5-14.2c0.1-0.3,0.2-0.6,0.3-1c1-3.7,1.5-7.6,1.3-11.8
	c-0.4-6.7-2.2-12.8-5.2-18c-0.2-0.3-0.3-0.6-0.5-0.9c-4.4-7.1-11.3-12.3-20-14.7c-4.9-1.4-10.1-2-15.2-2.1
	c-6.4-0.1-12.9-0.2-19.3-0.2c-8.3,0-16.6,0.1-24.8,0.1c-1,0-2,0.1-2.8,0.1c0,0.1,0,0.1,0,0.2c0,0.4,0,0.8,0,1.3
	C68.2,135.5,68.2,136.1,68.2,136.6z M42.9,67C39,67,35,67.6,31,68.5c-21.6,5.2-36.7,27.1-27.4,52c1.7,4.5,4.2,8.6,7.3,12h52h0.8
	l0,0.8c0,0.3,0,0.7,0.1,1.1c0,0.8,0.1,1.6,0.1,2.4c0,0.9,0,1.7,0,2.6c1.2-0.7,2.3-1.4,3.5-2.2V134c-6.5-7.5-12.9-14.9-19.3-22.4
	c-2.4,1.9-4.7,2.8-6.9,2.8c-2.1,0-4-0.9-5.6-2.6c-2.9-3.2-3-8-0.2-11.2c1.6-1.9,3.6-2.9,5.8-2.9c2.1,0,4.3,0.9,6.7,2.6
	c4.5-4.1,8.9-8.2,13.5-12.3v0h0c3.2-2.9,6.4-5.9,9.6-8.8c-3.2-3.4-6.8-5.9-10.8-7.9C54.5,68.2,48.8,67,42.9,67z"/>
</svg>
